<?xml version="1.0" encoding="UTF-8" standalone="no"?>
<!-- Created with Inkscape (http://www.inkscape.org/) -->

<svg
   xmlns:dc="http://purl.org/dc/elements/1.1/"
   xmlns:cc="http://creativecommons.org/ns#"
   xmlns:rdf="http://www.w3.org/1999/02/22-rdf-syntax-ns#"
   xmlns:svg="http://www.w3.org/2000/svg"
   xmlns="http://www.w3.org/2000/svg"
   xmlns:sodipodi="http://sodipodi.sourceforge.net/DTD/sodipodi-0.dtd"
   xmlns:inkscape="http://www.inkscape.org/namespaces/inkscape"
   id="svg2"
   version="1.1"
   inkscape:version="0.48.4 r9939"
   width="123.83715"
   height="115.81126"
   sodipodi:docname="whatsyour50-BUG-full-edit.svg">
  <metadata
     id="metadata8">
    <rdf:RDF>
      <cc:Work
         rdf:about="">
        <dc:format>image/svg+xml</dc:format>
        <dc:type
           rdf:resource="http://purl.org/dc/dcmitype/StillImage" />
        <dc:title />
      </cc:Work>
    </rdf:RDF>
  </metadata>
  <defs
     id="defs6" />
  <sodipodi:namedview
     pagecolor="#ffffff"
     bordercolor="#666666"
     borderopacity="1"
     objecttolerance="10"
     gridtolerance="10"
     guidetolerance="10"
     inkscape:pageopacity="0"
     inkscape:pageshadow="2"
     inkscape:window-width="1680"
     inkscape:window-height="997"
     id="namedview4"
     showgrid="false"
     inkscape:zoom="1.2147567"
     inkscape:cx="248.00726"
     inkscape:cy="-193.62885"
     inkscape:window-x="0"
     inkscape:window-y="27"
     inkscape:window-maximized="1"
     inkscape:current-layer="svg2"
     fit-margin-top="0"
     fit-margin-left="0"
     fit-margin-right="0"
     fit-margin-bottom="0" />
  <path
     inkscape:connector-curvature="0"
     id="path3005"
     d="m -1412.3194,443.79173 0,-549.5 587.50001,0 587.5,0 0,549.5 0,549.50001 -587.5,0 -587.50001,0 0,-549.50001 z"
     style="fill:#fdfdfd" />
  <g
     id="g3118"
     transform="matrix(0.10548426,0,0,0.10548426,-116.19937,7.7257638)">
    <path
       id="path3031"
       d="m 1678.2188,-67.8125 c -0.5833,0.216856 -4.0645,3.698023 -5.125,5.25 -0.5761,0.841195 -1.0005,1.767502 -1.375,2.71875 2.1794,-2.472499 4.5507,-4.792689 6.375,-7.53125 0.24,-0.361165 0.2587,-0.487544 0.125,-0.4375 z m -7.1563,0.0625 c -0.188,0.423045 -0.3527,0.873091 -0.4687,1.34375 -0.098,0.391818 -0.1602,3.719762 -0.2188,8.15625 0.1755,-0.217258 0.3512,-0.442457 0.5312,-0.65625 0.1146,-0.493684 0.2588,-0.976017 0.375,-1.46875 -0.051,-0.888534 -0.1068,-1.767585 -0.1562,-2.65625 -0.07,-1.573221 -0.077,-3.145553 -0.062,-4.71875 z M 1414.2188,35.21875 c 3.9764,6.983708 6.874,12.193299 6.875,12.46875 0,0.35474 -27.4484,0.625 -61,0.625 l -61,0 -9.75,9.0625 c -21.0648,19.58136 -48.2723,50.2806 -67.7813,76.4375 -69.8514,93.65411 -109.4092,198.38009 -118.9375,315 -1.3417,16.4222 -1.4106,82.0215 -0.094,92 0.2908,2.2 1.0172,9.175 1.5938,15.5 6.987,76.64636 31.867,159.31766 68.1875,226.46875 19.4621,35.98252 42.2371,69.78415 67.0313,99.53125 10.6342,12.76006 34.6873,38.89176 36.875,40.0625 1.0435,0.55913 28.505,0.9375 67.8124,0.9375 39.6069,0 66.0626,0.38529 66.0626,0.9375 0,0.0372 -0.039,0.14186 -0.063,0.21875 l 11.875,0 c 2.7271,-0.11907 5.2618,-0.061 7.7813,0.1875 l 0.7813,-1.34375 43.8124,0 c 27.5652,0 43.8126,-0.36016 43.8126,-0.96875 0,-0.53211 -6.6384,-4.32606 -14.75,-8.4375 -13.6848,-6.9352 -39.4611,-21.76853 -46.2813,-26.625 -1.6194,-1.15306 -2.9687,-2.69351 -2.9687,-3.4375 0,-0.53512 1.3424,-3.32723 3.25,-6.84375 -0.5195,-0.27856 -1.0436,-0.52761 -1.5938,-0.84375 -0.8632,-0.49594 -2.4404,-1.55707 -3.6562,-2.46875 -0.021,-0.0101 -0.042,-0.0211 -0.063,-0.0312 -0.6261,-0.30852 -1.2225,-0.65631 -1.8124,-1.03125 -0.2387,-0.1517 -0.4623,-0.32713 -0.6876,-0.5 -0.116,0.067 -0.3652,-0.0417 -0.6562,-0.1875 0.095,0.0815 0.1907,0.16362 0.2812,0.25 0.1251,0.11926 -0.2728,-0.18703 -0.5,-0.375 -1.262,-0.72921 -3.4272,-2.56151 -4.5624,-3.28125 -0.063,-0.0396 -0.1253,-0.0849 -0.1876,-0.125 -0.2287,-0.10821 -0.564,-0.27368 -0.7812,-0.375 -1.2113,1.99368 -2.3013,3.64273 -2.8438,4.3125 l -1.75,2.1875 -11.4062,-8.84375 c -48.6877,-37.83737 -88.3556,-83.68876 -119.7812,-138.375 -3.32,-5.775 -7.0757,-12.63326 -8.3438,-15.25 l -2.3125,-4.75 3.4063,-2.84375 c 2.7373,-2.2854 3.4062,-3.57606 3.4062,-6.53125 0,-6.32197 -5.5021,-9.5806 -12.1875,-7.25 -2.0741,0.72305 -2.5294,0.16924 -5.3125,-5.96875 -4.0909,-9.02231 -13.957,-36.34074 -18.3438,-50.8125 -14.3718,-47.41826 -21.5312,-94.65641 -21.5312,-142.09375 0,-42.46645 5.0576,-81.77148 16.0625,-124.75 26.5855,-103.8277 91.2715,-198.3229 177.625,-259.53125 l 10.2187,-7.25 5.2813,0.625 c 4.7005,0.54452 5.5433,0.36726 7.4687,-1.71875 1.1941,-1.29215 2.5716,-3.92372 3.0626,-5.84375 0.7509,-2.94008 2.0476,-4.19301 8.3124,-7.90625 13.4122,-7.94872 40.423,-21.03203 58.0938,-28.125 9.5387,-3.828814 17.2309,-7.29723 17.0938,-7.71875 -0.1367,-0.42156 -24.5782,-1.0063 -54.3428,-1.2813 l -54.125,-0.5 -5.2188,-9.09375 c -7.173,-0.931352 -14.196,-3.045003 -21.4374,-3.5 z M 1919.375,43 l -2.7812,4.8125 -44.8126,0.28125 c -31.8913,0.18521 -44.7279,0.5659 -44.4687,1.34375 0.2005,0.60139 7.1385,3.757666 15.4063,7 18.338,7.19205 53.384,24.32202 53.375,26.09375 -0.01,0.70828 -0.9082,2.63125 -2,4.28125 -2.7684,4.1781 -2.5707,9.0231 0.4687,12.0625 4.3942,4.39426 9.9132,2.97906 14.0625,-3.59375 1.3738,-2.17635 2.9492,-3.96875 3.5,-3.96875 1.9236,0 35.5637,23.27831 46.9688,32.5 26.3197,21.28209 52.802,48.68393 74.0312,76.5625 3.5437,4.65367 11.7605,16.31701 18.25,25.9375 l 11.8125,17.5 -4.6875,4.0625 c -4.4062,3.82249 -4.6442,4.28441 -4,7.71875 0.7582,4.04145 4.6217,7.7441 8,7.6875 1.1633,-0.0195 3.2188,-0.68273 4.5938,-1.46875 5.4492,-3.11525 4.5907,-4.25633 17.6874,23.9375 19.0245,40.95254 33.2712,88.3506 39.8438,132.5625 2.2665,15.24657 4.4567,36.55598 4.4688,43.625 l 0,6.125 -5.6563,0.46875 c -6.4241,0.53273 -9.3437,2.98557 -9.3437,7.84375 0,4.74798 3.7281,8.00221 10.0312,8.78125 l 5.4688,0.6875 L 2129.4375,504 c -0.3968,46.18538 -10.0955,100.18729 -26.4687,147.21875 -2.2239,6.38815 -5.3105,15.41875 -6.8438,20.09375 -3.5336,10.77341 -10.4725,26.23007 -12.3125,27.40625 -0.9787,0.62559 -4.2363,-0.67579 -10.6875,-4.3125 -9.9047,-5.58345 -12.1982,-5.89559 -16.0312,-2.0625 -2.3918,2.3918 -2.6191,7.66671 -0.4376,10.78125 0.8601,1.22776 5.1829,4.29953 9.5938,6.84375 4.411,2.54423 8.2173,5.15753 8.4688,5.8125 0.2509,0.65496 -0.9586,3.41707 -2.6876,6.125 -1.7289,2.70793 -7.4149,11.88125 -12.6562,20.40625 -15.3946,25.03968 -29.6194,44.23225 -49.3125,66.5 -14.073,15.9128 -39.5966,40.53734 -53.4687,51.59375 -15.0562,11.99981 -30.2786,22.90625 -31.9688,22.90625 -0.4461,0 -1.9909,-2.00913 -3.9062,-4.90625 -0.9092,0.58046 -2.0521,1.27487 -3.75,2.21875 -0.032,0.0176 -0.045,-0.009 -0.063,0 0.2335,-0.1784 1.1906,-0.81998 1.4688,-1.1875 0.1857,-0.24534 -0.5696,0.26635 -0.8438,0.40625 0.3286,-0.52369 0.6737,-1.03767 1,-1.5625 -0.7795,0.53106 -1.5021,0.95033 -2.0624,1.125 -3.4595,2.63214 -6.8923,5.30482 -10.4376,7.8125 1.7971,3.2884 3.0626,5.73234 3.0626,6.03125 0,1.33149 -13.8406,9.46367 -33.75,19.8125 -8.9389,4.64569 -16.2508,8.84097 -16.25,9.34375 0,0.53424 14.1243,0.90625 33.9687,0.90625 l 33.9687,0 0.6563,1.15625 c 1.7304,-10e-4 3.4571,0.002 5.1875,0 3.3059,7.8e-4 6.6316,0 9.9375,0 1.5005,-3.1e-4 2.9995,-6e-5 4.5,0 -0.083,-0.1858 -0.2187,-0.48785 -0.2187,-0.53125 0,-0.32993 34.3675,-0.625 76.375,-0.625 l 76.4062,0 12.375,-12.78125 c 37.8151,-39.03059 72.7661,-88.62232 98.8125,-140.21875 34.887,-69.10937 55.3667,-141.63818 62.6875,-222 1.8373,-20.16779 2.4434,-75.0093 1.0625,-94.5 -10.5171,-148.44261 -73.2369,-283.73133 -180.9375,-390.25 l -15.4062,-15.25 -70.6876,0 c -56.1123,0 -70.6874,-0.25132 -70.6874,-1.25 0,-0.240803 0.7053,-1.642415 1.6562,-3.46875 -0.1458,-0.0031 -0.2917,0.0034 -0.4375,0 -5.4303,-0.142052 -10.8207,1.008186 -16.25,0.0625 -0.8938,-0.238631 -1.7862,-0.441399 -2.6875,-0.65625 z m -462.0938,830.84375 c 0.049,0.0852 0.106,0.16552 0.1563,0.25 0.4265,0.15698 0.8553,0.31047 1.2813,0.46875 0.065,-0.11406 0.1232,-0.23021 0.1874,-0.34375 -0.5381,-0.13735 -1.0843,-0.24385 -1.625,-0.375 z"
       style="fill:#f4bc46"
       inkscape:connector-curvature="0" />
    <path
       inkscape:connector-curvature="0"
       id="path2987"
       d="m 1673.9788,1022.4671 c -1.998,-2.1445 -2.039,-3.2383 -2.039,-54.3892 0,-49.51254 0.096,-52.31961 1.8712,-54.5114 2.6,-3.21091 8.6576,-3.21091 11.2576,0 1.775,2.19203 1.8712,5.00319 1.8712,54.7 0,51.0559 -0.051,52.4401 -2,54.3892 -2.7499,2.7499 -8.3126,2.6542 -10.961,-0.1886 z m -269.7373,-71.31258 c -1.1788,-0.8257 -2.4425,-2.8632 -2.808,-4.5277 -0.5868,-2.6716 2.3481,-8.2438 25.0269,-47.51641 14.1304,-24.46945 26.644,-45.15699 27.808,-45.97231 1.164,-0.81531 3.1617,-1.48238 4.4394,-1.48238 3.0002,0 7.232,4.2409 7.232,7.24758 0,1.28617 -7.7878,15.81913 -17.3062,32.29546 -9.5183,16.47633 -21.1058,36.56906 -25.75,44.65046 -8.1755,14.2267 -10.4425,16.8065 -14.7683,16.8065 -0.9518,0 -2.695,-0.6756 -3.8738,-1.5012 z m 541.8154,-0.2488 c -2.0268,-1.6854 -51.3616,-86.29421 -52.6087,-90.22358 -0.902,-2.84201 2.1019,-7.89051 5.1502,-8.65559 6.0139,-1.5094 6.2499,-1.18543 33.464,45.94168 14.8564,25.72728 25.8774,45.86999 25.8774,47.29549 0,3.1766 -4.1878,7.392 -7.3438,7.392 -1.339,0 -3.3816,-0.7875 -4.5391,-1.75 z M 1206.7025,753.11393 c -3.131,-1.72577 -4.46,-5.60455 -3.1563,-9.21198 0.6888,-1.90622 11.1804,-8.40494 45.784,-28.35957 24.6897,-14.23766 45.9726,-25.88666 47.2954,-25.88666 3.1336,0 7.3142,4.22898 7.3142,7.39878 0,1.36933 -1.0125,3.58405 -2.25,4.9216 -2.4697,2.66934 -86.6243,51.39706 -90.0966,52.1683 -1.1844,0.26306 -3.3852,-0.20065 -4.8907,-1.03047 z m 927.2373,-5.81365 c -6.875,-4.02929 -26.3417,-15.31948 -43.2593,-25.08931 -16.9175,-9.76983 -31.6533,-18.89992 -32.746,-20.28909 -3.1469,-4.00063 -1.0319,-10.71675 3.753,-11.91769 3.1703,-0.79568 1.9965,-1.40843 47.7523,24.92863 36.7623,21.16037 45.6567,26.51297 46.7347,28.12455 2.7839,4.16187 -1.6788,11.61134 -6.9392,11.58362 -1.6487,-0.009 -7.9233,-3.02003 -15.2955,-7.34071 z m -999.5,-264.83951 c -2.8661,-1.62529 -3.4674,-2.83282 -3.4847,-6.99835 -0.029,-7.04069 -1.9904,-6.8067 57.0522,-6.8067 48.8646,0 52.7323,0.12497 54.1592,1.75 3.4323,3.90862 2.9647,8.81665 -1.14,11.9682 -2.1925,1.68329 -103.6257,1.76594 -106.5867,0.0869 z m 985,0 c -2.8662,-1.62529 -3.4674,-2.83282 -3.4847,-6.99835 -0.029,-7.03366 -1.9055,-6.8067 56.2729,-6.8067 34.6309,0 52.5014,0.3522 53.8254,1.0608 4.7964,2.56695 4.3455,10.49772 -0.7282,12.80948 -3.5004,1.59489 -103.066,1.53356 -105.8854,-0.0652 z m -827,-220.20309 c -1.65,-0.71682 -9.3169,-5.14967 -17.0376,-9.85077 -7.7206,-4.70109 -26.3956,-15.82714 -41.5,-24.72455 -15.1043,-8.89741 -28.2499,-17.09311 -29.2124,-18.21266 -0.9625,-1.11955 -1.75,-3.14531 -1.75,-4.50169 0,-2.9275 5.02,-8.31229 7.7492,-8.31229 1.4979,0 67.2661,38.79952 86.9578,51.30013 4.9433,3.13811 6.5743,5.73109 5.7273,9.10575 -1.2344,4.91811 -6.1726,7.26477 -10.9343,5.19608 z m 766.7624,-2.1307 c -3.1388,-2.19852 -4.065,-8.12394 -1.6412,-10.49939 3.8,-3.72411 88.8112,-51.97187 91.573,-51.97187 6.0592,0 9.1244,8.54311 4.5558,12.69722 -3.9751,3.61438 -87.655,51.30278 -90.0222,51.30278 -1.2555,0 -3.2649,-0.68793 -4.4654,-1.52874 z m -606.05,-161.72126 c -2.2625,-2.739172 -51.3227,-88.4060574 -51.878,-90.5870574 -1.4875,-5.84315 7.656,-10.62912 12.3474,-6.46302 3.1065,2.75862 52.3182,88.8904854 52.3182,91.5689454 0,3.76226 -3.4917,6.731132 -7.9165,6.731132 -2.1112,0 -4.3032,-0.5625 -4.8711,-1.25 z m 442.2759,-0.76291 c -1.0019,-1.107092 -1.8216,-3.272632 -1.8216,-4.812312 0,-2.91166 49.1254,-89.4934354 52.157,-91.92477536 4.3364,-3.47790004 12.1763,0.0279 12.1763,5.44493996 0,1.69909 -9.2821,18.7895304 -25.119,46.2500004 -13.8155,23.955275 -25.8103,44.342555 -26.655,45.305057 -2.1667,2.46864 -8.4039,2.31592 -10.7377,-0.26291 z M 1674.0124,38.020863 c -2.0363,-2.58876 -2.0726,-3.5431 -2.0726,-54.54546 l 0,-51.91059 2.4546,-2.45455 c 2.9996,-2.99969 6.4153,-3.13133 9.9105,-0.38196 l 2.6349,2.07258 0,52.92742 c 0,51.59409 -0.05,52.9778 -2,54.92742 -2.9777,2.97766 -8.3304,2.66668 -10.9274,-0.63486 z"
       style="fill:#000000" />
  </g>
</svg>
